# xmcd CD database file generated by Grip 3.2.0
# 
# Track frame offsets:
#       182
#       12855
#       24772
#       39025
#       52230
#       72325
#       90720
#       103637
#       117230
#       131352
#       144512
#       157347
#       172175
#       184435
#       198327
#       212770
#       226205
#       237492
#       250642
#       264325
# 
# Disc length: 3707 seconds
# 
# Revision: 4
# Processed by: cddbd v1.5.1PL0 Copyright (c) Steve Scherf et al.
# Submitted via: Grip 3.2.0
# 
DISCID=170e7914
DTITLE=Ella Fitzgerald - Ella!
DYEAR=1995
DGENRE=Blues
TTITLE0=Ella!
TTITLE1=A tisket a tasket
TTITLE2=My heart belongs to daddy
TTITLE3=Shine
TTITLE4=I want to be happy
TTITLE5=Halleluyah!
TTITLE6=Saving myself for you
TTITLE7=Out of nowhere
TTITLE8=Bei mir bist Du schön
TTITLE9=Gotta pebble in my shoe
TTITLE10=Strictly from dixie
TTITLE11=Undecided
TTITLE12=Billy
TTITLE13=It's foxy
TTITLE14=Have mercy
TTITLE15=Little white lies
TTITLE16=Flying home
TTITLE17=I got it bad
TTITLE18=Gulf coast blues
TTITLE19=My man
EXTD=
EXTT0=
EXTT1=
EXTT2=
EXTT3=
EXTT4=
EXTT5=
EXTT6=
EXTT7=
EXTT8=
EXTT9=
EXTT10=
EXTT11=
EXTT12=
EXTT13=
EXTT14=
EXTT15=
EXTT16=
EXTT17=
EXTT18=
EXTT19=
PLAYORDER=
